<?xml version="1.0" encoding="utf-8"?>
<!-- Generator: Adobe Illustrator 25.4.0, SVG Export Plug-In . SVG Version: 6.00 Build 0)  -->
<svg version="1.1" id="Layer_1" xmlns="http://www.w3.org/2000/svg" xmlns:xlink="http://www.w3.org/1999/xlink" x="0px" y="0px"
	 viewBox="0 0 21 8" style="enable-background:new 0 0 21 8;" xml:space="preserve">
<style type="text/css">
	.st0{fill:none;}
	.st1{fill:#FFA800;}
</style>
<g>
	<rect x="0.2" y="0.3" class="st0" width="20" height="7.5"/>
	<path class="st1" d="M19.2,7.7H1.3c-0.3,0-0.6-0.1-0.8-0.3C0.4,7.2,0.2,6.9,0.2,6.6S0.4,6,0.6,5.8c0.2-0.2,0.5-0.3,0.8-0.3h17.8
		c0.3,0,0.6,0.1,0.8,0.3c0.2,0.2,0.3,0.5,0.3,0.8s-0.1,0.6-0.3,0.8C19.7,7.6,19.4,7.7,19.2,7.7z"/>
	<path class="st1" d="M19.2,2.5H1.3c-0.3,0-0.6-0.1-0.8-0.3S0.2,1.7,0.2,1.4s0.1-0.6,0.3-0.8s0.5-0.3,0.8-0.3h17.8
		c0.3,0,0.6,0.1,0.8,0.3c0.2,0.2,0.3,0.5,0.3,0.8S20.1,2,19.9,2.2C19.7,2.4,19.4,2.5,19.2,2.5z"/>
</g>
</svg>
