<?xml version="1.0" encoding="utf-8"?>
<!-- Generator: Adobe Illustrator 25.4.0, SVG Export Plug-In . SVG Version: 6.00 Build 0)  -->
<svg version="1.1" id="Layer_1" xmlns="http://www.w3.org/2000/svg" xmlns:xlink="http://www.w3.org/1999/xlink" x="0px" y="0px"
	 viewBox="0 0 21 16" style="enable-background:new 0 0 21 16;" xml:space="preserve">
<style type="text/css">
	.st0{fill:#7AE229;}
</style>
<g>
	<path class="st0" d="M10.2,9.5c-0.2,0-0.5-0.1-0.7-0.2L0.7,2.7C0.6,2.6,0.5,2.5,0.4,2.4C0.3,2.3,0.3,2.1,0.3,2c0-0.3,0-0.6,0.2-0.8
		C0.6,1,0.9,0.8,1.2,0.8c0.3,0,0.6,0,0.8,0.2L10.2,7L18.5,1c0.1-0.1,0.2-0.1,0.4-0.2c0.1,0,0.3,0,0.4,0c0.1,0,0.3,0.1,0.4,0.1
		C19.8,1,19.9,1.1,20,1.2c0.1,0.1,0.1,0.2,0.2,0.4c0,0.1,0,0.3,0,0.4c0,0.1-0.1,0.3-0.1,0.4c-0.1,0.1-0.2,0.2-0.3,0.3l-8.9,6.6
		C10.7,9.4,10.5,9.5,10.2,9.5z"/>
	<path class="st0" d="M10.2,15.3c-0.2,0-0.5-0.1-0.7-0.2L0.7,8.5C0.5,8.3,0.3,8,0.3,7.8c0-0.3,0-0.6,0.2-0.8
		c0.2-0.2,0.4-0.4,0.7-0.4c0.3,0,0.6,0,0.8,0.2l8.3,6.1l8.3-6.1c0.2-0.2,0.5-0.2,0.8-0.2c0.3,0,0.5,0.2,0.7,0.4
		c0.2,0.2,0.2,0.5,0.2,0.8c0,0.3-0.2,0.5-0.4,0.7L10.9,15C10.7,15.2,10.5,15.3,10.2,15.3z"/>
</g>
</svg>
